<svg width="21" height="22" viewBox="0 0 21 22" fill="none" xmlns="http://www.w3.org/2000/svg">
<path d="M10.0002 5V8C10.0002 8.55229 10.4479 9 11.0002 9H14.0001M16.0001 1H8.99995C7.8954 1 6.99999 1.89542 6.99998 2.99999V5M16.0001 1H16.5579C16.8395 1 17.1076 1.11861 17.3016 1.32273C17.5931 1.62948 18.055 2.10179 18.5 2.5C18.8488 2.8121 19.3968 3.37221 19.725 3.71261C19.9025 3.8967 20 4.1425 20 4.3982L20 5M16.0001 1V4C16.0001 4.55229 16.4478 5 17.0001 5H20M20 5L19.9997 15C19.9997 16.1046 19.1043 17 17.9998 17H13.9998M12.5001 6.5C12.0551 6.10179 11.5932 5.62948 11.3017 5.32273C11.1077 5.11861 10.8396 5 10.558 5H3.00005C1.8955 5 1.00008 5.89543 1.00008 6.99999L1 18.9999C0.999993 20.1045 1.89541 21 2.99996 21L11.9999 21C13.1044 21 13.9998 20.1046 13.9998 19L14.0001 8.3982C14.0001 8.1425 13.9026 7.8967 13.7251 7.71261C13.3969 7.37221 12.8489 6.8121 12.5001 6.5Z" stroke="#034579" stroke-width="2" stroke-linecap="round" stroke-linejoin="round"/>
</svg>
