<svg width="15" height="16" viewBox="0 0 15 16" fill="none" xmlns="http://www.w3.org/2000/svg">
<path d="M7.15801 3.8V5.9C7.15801 6.2866 7.46434 6.6 7.84221 6.6H9.89481M11.2632 1H6.47365C5.71791 1 5.10526 1.6268 5.10525 2.39999V3.8M11.2632 1H11.6449C11.8376 1 12.021 1.08303 12.1537 1.22591C12.3532 1.44064 12.6692 1.77125 12.9737 2.05C13.2124 2.26847 13.5873 2.66054 13.8118 2.89883C13.9333 3.02769 14 3.19975 14 3.37874L14 3.8M11.2632 1V3.1C11.2632 3.4866 11.5695 3.8 11.9474 3.8H14M14 3.8L13.9998 10.8C13.9998 11.5732 13.3871 12.2 12.6314 12.2H9.8946M8.86851 4.85C8.564 4.57125 8.24801 4.24064 8.04852 4.02591C7.91578 3.88303 7.73238 3.8 7.5397 3.8H2.36845C1.61271 3.8 1.00006 4.4268 1.00005 5.19999L1 13.6C0.999995 14.3732 1.61265 15 2.36839 15L8.52622 15C9.28195 15 9.8946 14.3732 9.89462 13.6L9.8948 6.17874C9.89481 5.99975 9.82807 5.82769 9.70664 5.69883C9.48211 5.46055 9.10717 5.06847 8.86851 4.85Z" stroke="#034579" stroke-width="1.55" stroke-linecap="round" stroke-linejoin="round"/>
</svg>
